<?xml version="1.0" standalone="no"?>
<!DOCTYPE svg PUBLIC "-//W3C//DTD SVG 20010904//EN"
 "http://www.w3.org/TR/2001/REC-SVG-20010904/DTD/svg10.dtd">
<svg version="1.0" xmlns="http://www.w3.org/2000/svg"
 width="1857.000000pt" height="94.000000pt" viewBox="0 0 1857.000000 94.000000"
 preserveAspectRatio="xMidYMid meet">

<g transform="translate(0.000000,94.000000) scale(0.100000,-0.100000)"
fill="#000000" stroke="none">
<path d="M2610 500 l0 -300 60 0 60 0 0 120 0 119 78 3 77 3 3 43 3 42 -80 0
-81 0 0 90 0 89 78 3 77 3 3 43 3 42 -140 0 -141 0 0 -300z"/>
<path d="M3373 779 l-53 -20 0 -60 c0 -52 -2 -59 -20 -59 -13 0 -20 -7 -20
-20 0 -13 7 -20 20 -20 19 0 20 -7 20 -171 0 -94 4 -179 10 -189 13 -24 62
-40 122 -40 l49 0 -3 42 c-3 39 -6 43 -30 46 l-28 3 0 155 0 154 30 0 c23 0
30 4 30 20 0 16 -7 20 -30 20 l-30 0 0 80 c0 44 -3 80 -7 79 -5 0 -32 -9 -60
-20z"/>
<path d="M3860 755 l0 -45 55 0 55 0 0 45 0 45 -55 0 -55 0 0 -45z"/>
<path d="M4360 500 l0 -300 55 0 55 0 0 300 0 300 -55 0 -55 0 0 -300z"/>
<path d="M5050 710 c0 -87 -1 -90 -19 -80 -49 26 -144 -1 -161 -45 -6 -15 -10
-89 -10 -165 0 -76 4 -150 10 -165 17 -44 112 -71 161 -45 13 7 19 7 19 0 0
-6 25 -10 60 -10 l60 0 0 300 0 300 -60 0 -60 0 0 -90z m-2 -293 l3 -128 -33
3 -33 3 -3 114 c-1 63 0 121 3 129 3 8 16 12 32 10 l28 -3 3 -128z"/>
<path d="M6003 778 l-53 -21 0 -58 c0 -52 -2 -59 -20 -59 -13 0 -20 -7 -20
-20 0 -13 7 -20 19 -20 19 0 20 -10 23 -175 3 -165 4 -176 25 -197 18 -17 37
-23 88 -26 l65 -4 0 45 c0 42 -2 46 -27 49 l-28 3 -3 153 -3 152 31 0 c23 0
30 4 30 20 0 16 -7 20 -30 20 l-30 0 0 80 c0 44 -3 79 -7 79 -5 -1 -32 -10
-60 -21z"/>
<path d="M6522 758 l3 -43 58 -3 57 -3 0 46 0 45 -61 0 -60 0 3 -42z"/>
<path d="M7813 778 l-53 -21 0 -58 c0 -52 -2 -59 -20 -59 -13 0 -20 -7 -20
-20 0 -13 7 -20 20 -20 19 0 20 -7 20 -169 0 -164 1 -171 24 -197 20 -24 32
-28 90 -32 l66 -4 0 45 c0 42 -2 46 -27 49 l-28 3 -3 153 -3 152 31 0 c23 0
30 4 30 20 0 16 -7 20 -30 20 l-30 0 0 80 c0 44 -3 80 -7 79 -5 0 -32 -10 -60
-21z"/>
<path d="M9220 755 l0 -46 58 3 57 3 3 43 3 42 -60 0 -61 0 0 -45z"/>
<path d="M10080 500 l0 -300 55 0 55 0 0 300 0 300 -55 0 -55 0 0 -300z"/>
<path d="M2974 626 c-17 -8 -34 -21 -38 -31 -3 -9 -6 -90 -6 -180 0 -176 2
-185 57 -206 34 -13 153 -11 192 2 40 14 51 35 51 98 l0 51 -55 0 c-48 0 -55
-3 -55 -19 0 -36 -12 -51 -40 -51 -31 0 -40 15 -40 66 l0 34 95 0 95 0 0 96
c0 108 -7 127 -51 143 -44 15 -167 13 -205 -3z m140 -92 c3 -9 6 -27 6 -40 0
-21 -4 -24 -40 -24 -36 0 -40 3 -40 24 0 13 3 31 6 40 8 21 60 21 68 0z"/>
<path d="M3540 595 l0 -45 75 0 c41 0 75 -3 75 -6 0 -3 -34 -63 -75 -133 -61
-104 -75 -135 -75 -169 l0 -42 141 0 140 0 -3 43 -3 42 -77 5 -77 5 80 134
c62 105 79 141 79 172 l0 39 -140 0 -140 0 0 -45z"/>
<path d="M3860 420 l0 -220 55 0 55 0 0 220 0 220 -55 0 -55 0 0 -220z"/>
<path d="M4510 420 l0 -220 60 0 60 0 2 173 3 172 33 3 32 3 0 -175 0 -176 60
0 60 0 0 189 c0 104 -3 197 -6 206 -15 38 -101 57 -158 35 -17 -6 -26 -6 -26
0 0 6 -27 10 -60 10 l-60 0 0 -220z"/>
<path d="M5210 451 c0 -184 1 -191 23 -217 18 -20 35 -28 74 -31 28 -3 59 0
72 6 14 8 21 8 21 1 0 -6 25 -10 60 -10 l60 0 0 220 0 220 -60 0 -60 0 -2
-172 -3 -173 -30 0 -30 0 -3 173 -2 172 -60 0 -60 0 0 -189z"/>
<path d="M5613 625 c-43 -18 -53 -42 -53 -120 0 -103 20 -124 125 -134 l60 -6
0 -35 c0 -32 -2 -35 -30 -35 -27 0 -30 4 -33 33 l-3 32 -60 0 -59 0 0 -46 c0
-58 13 -82 55 -100 44 -18 156 -18 200 0 43 18 55 42 55 110 0 98 -21 119
-130 132 l-61 7 3 41 c3 38 5 41 33 41 27 0 30 -4 33 -32 l3 -33 60 0 59 0 0
46 c0 58 -13 82 -55 100 -43 18 -160 18 -202 -1z"/>
<path d="M6170 420 l0 -220 60 0 60 0 0 159 c0 88 3 166 6 175 9 24 60 21 67
-4 4 -17 14 -20 61 -20 l56 0 0 36 c0 19 -4 44 -10 54 -18 34 -118 53 -161 30
-13 -7 -19 -7 -19 0 0 6 -25 10 -60 10 l-60 0 0 -220z"/>
<path d="M6520 420 l0 -220 60 0 60 0 0 220 0 220 -60 0 -60 0 0 -220z"/>
<path d="M6732 626 c-17 -8 -37 -27 -42 -41 -13 -34 -13 -296 0 -330 15 -41
69 -58 168 -53 77 3 86 5 108 31 18 22 24 40 24 78 l0 49 -59 0 -60 0 -3 -32
c-3 -29 -6 -33 -33 -33 -29 0 -30 2 -33 48 l-3 47 95 0 96 0 0 94 c0 85 -2 98
-24 122 -21 26 -30 28 -112 31 -63 2 -98 -1 -122 -11z m136 -118 c3 -37 3 -38
-32 -38 -34 0 -36 2 -36 33 0 41 7 49 40 45 21 -3 25 -9 28 -40z"/>
<path d="M7083 625 c-43 -18 -53 -42 -53 -120 0 -103 20 -124 125 -134 l60 -6
0 -35 c0 -32 -2 -35 -30 -35 -27 0 -30 4 -33 33 l-3 32 -60 0 -59 0 0 -50 c0
-88 49 -116 191 -108 63 3 74 7 95 31 19 23 24 39 24 85 0 107 -17 125 -129
138 l-62 7 3 41 c3 38 5 41 33 41 27 0 30 -4 33 -32 l3 -33 60 0 59 0 0 46 c0
58 -13 82 -55 100 -43 18 -160 18 -202 -1z"/>
<path d="M8032 626 c-17 -9 -37 -27 -42 -41 -13 -34 -13 -296 0 -330 15 -41
69 -58 168 -53 77 3 86 5 108 31 18 22 24 40 24 78 l0 49 -59 0 -60 0 -3 -32
c-3 -29 -6 -33 -33 -33 -29 0 -30 2 -33 48 l-3 47 95 0 96 0 0 94 c0 86 -2 98
-24 123 -23 26 -30 28 -113 31 -61 1 -98 -2 -121 -12z m136 -118 c3 -37 3 -38
-32 -38 -34 0 -36 2 -36 33 0 41 7 49 40 45 21 -3 25 -9 28 -40z"/>
<path d="M8330 420 l0 -220 60 0 60 0 2 173 3 172 28 3 c22 3 30 -1 34 -17 5
-18 13 -21 64 -21 l59 0 0 34 c0 54 -35 87 -97 93 -28 3 -59 0 -72 -6 -14 -8
-21 -8 -21 -1 0 6 -25 10 -60 10 l-60 0 0 -220z"/>
<path d="M8680 420 l0 -220 60 0 60 0 2 173 3 172 30 0 30 0 3 -172 2 -173 60
0 60 0 2 173 3 172 30 0 30 0 3 -172 2 -173 60 0 60 0 0 189 c0 184 -1 191
-23 217 -30 34 -113 46 -152 20 -23 -15 -28 -15 -55 -1 -33 17 -102 20 -131 5
-13 -7 -19 -7 -19 0 0 6 -25 10 -60 10 l-60 0 0 -220z"/>
<path d="M9220 420 l0 -220 60 0 60 0 0 220 0 220 -60 0 -60 0 0 -220z"/>
<path d="M9380 420 l0 -220 60 0 60 0 2 173 3 172 30 0 30 0 3 -172 2 -173 60
0 60 0 0 191 0 191 -29 29 c-24 24 -38 29 -76 29 -25 0 -55 -5 -66 -10 -13 -7
-19 -7 -19 0 0 6 -25 10 -60 10 l-60 0 0 -220z"/>
<path d="M9794 630 c-35 -14 -54 -50 -54 -102 l0 -48 59 0 60 0 3 33 c2 27 7
32 28 32 23 0 25 -4 28 -46 l3 -46 -70 -7 c-47 -5 -78 -14 -95 -27 -24 -19
-26 -27 -26 -93 0 -64 3 -75 25 -96 29 -27 119 -39 154 -21 14 8 21 8 21 1 0
-6 24 -10 55 -10 l55 0 0 179 c0 99 -4 191 -10 206 -6 15 -24 32 -45 40 -37
16 -157 19 -191 5z m124 -297 c-3 -35 -6 -38 -33 -38 -24 0 -31 5 -33 23 -6
38 5 52 38 52 30 0 31 -2 28 -37z"/>
</g>
</svg>
